<svg version="1.1" xmlns="http://www.w3.org/2000/svg" style="display: block;" viewBox="0 0 2048 2048" width="1024" height="1024">
<path transform="translate(0,0)" fill="rgb(254,254,254)" d="M 0 0 L 2048 0 L 2048 2048 L 0 2048 L 0 0 z M 995.502 76.4452 C 950.76 77.6019 905.89 79.7452 861.462 85.3419 C 847.789 87.0644 833.158 88.3417 819.941 92.3355 C 813.866 94.1712 807.549 96.849 803.098 101.51 C 797.469 107.405 793.976 115.02 792.62 123.005 C 789.597 140.814 792.317 161.169 793.089 179.192 C 794.302 209.645 795.695 240.09 797.267 270.526 L 804.075 402.685 C 805.146 425.14 804.565 453.723 808.654 475.333 C 809.457 479.578 811.319 484.145 814.646 487.042 C 819.748 491.483 828.013 492.789 834.542 492.855 C 860.503 493.114 889.353 487.566 915.689 485.793 C 965.745 482.422 1017.63 482.068 1067.75 484.556 C 1103.49 485.446 1139.2 487.309 1174.84 490.142 C 1189.7 491.342 1206.26 495.607 1220.98 495.054 C 1226.78 494.836 1231.56 492.348 1235.68 488.368 C 1239.09 485.074 1240.85 481.357 1241.64 476.715 C 1244.54 459.735 1244.55 441.492 1245.73 424.295 L 1252.33 340.217 L 1263.07 201.026 C 1264.71 177.798 1267.43 153.871 1267.24 130.592 C 1267.12 117.146 1264.44 107.752 1254.58 97.951 C 1249.56 92.9604 1242.23 90.6132 1235.52 88.8624 C 1217.71 84.2171 1196.81 83.5839 1178.48 82.0203 C 1119.34 76.7862 1059.96 74.8586 1000.6 76.2465 C 998.902 76.296 997.201 76.3622 995.502 76.4452 z M 612.118 212.35 C 594.154 214.324 575.804 221.933 558.659 227.461 C 476.337 254.007 396.739 287.22 318.163 323.26 C 299.986 331.597 250.299 352.231 239.021 366.481 C 232.28 374.997 227.873 389.154 229.333 399.795 C 231.693 416.987 240.118 434.74 246.269 450.9 L 279.63 537.513 L 328.07 666.135 C 335.987 687.036 342.982 708.458 352.142 728.852 C 354.214 733.464 356.445 737.195 360.591 740.216 C 363.83 742.575 367.857 743.968 371.74 744.822 C 388.374 744.803 444.813 712.502 462.825 703.834 C 526.474 673.205 603.441 642.502 671.089 622.762 C 684.392 618.92 697.785 615.393 711.255 612.184 C 719.993 610.103 729.712 608.637 738.047 605.281 C 741.896 603.731 745.731 601.663 748.606 598.617 C 751.187 595.883 751.98 593.246 751.698 589.501 C 750.704 576.285 745.606 562.401 742.023 549.635 C 736.487 530.101 731.072 510.532 725.778 490.93 C 709.46 430.383 692.623 369.978 675.268 309.721 C 668.54 286.456 663.267 262.199 655.224 239.39 C 652.685 232.189 650.063 226.381 644.045 221.333 C 634.789 213.569 623.83 211.598 612.118 212.35 z M 1408.3 235.2 C 1397.58 237.469 1386.44 241.607 1380.23 251.294 C 1370.44 266.558 1360.2 314.437 1354.94 334.284 L 1329.99 428.318 C 1320.39 463.52 1311.02 498.783 1301.88 534.107 C 1298.6 547.142 1294.6 560.433 1292.08 573.605 C 1291.32 577.559 1291.21 581.825 1292.28 585.735 C 1293.95 591.848 1299.3 596.503 1304.65 599.472 C 1317.74 606.727 1334.02 610.519 1348.22 615.421 C 1372.39 623.852 1396.47 632.549 1420.45 641.512 C 1481.01 664.553 1539.29 692.937 1596.63 723.007 C 1608.57 729.266 1657.57 760.097 1667.98 757.138 C 1671.23 756.212 1673.91 754.485 1676.56 752.452 C 1681.11 747.376 1683.68 741.76 1686.26 735.548 C 1694.43 715.935 1700.97 695.434 1708.16 675.433 L 1743.61 577.376 L 1779.13 478.437 C 1784.73 462.595 1791.03 446.712 1795.79 430.614 C 1797.11 426.143 1797.8 421.924 1797.61 417.246 C 1797.08 403.943 1791.96 393.066 1782.16 384.152 C 1771.63 374.561 1754.18 367.634 1741.36 361.248 C 1663.92 323.368 1584.28 290.163 1502.86 261.811 C 1479.22 253.46 1445.51 240.628 1421.36 235.841 C 1416.91 234.96 1412.8 234.899 1408.3 235.2 z M 817.767 597.172 C 800.212 601.964 783.574 612.062 766.858 619.305 L 646.421 670.956 L 476.844 743.38 C 460.155 750.614 435.557 757.968 420.955 767.388 C 408.328 775.534 200.487 984.74 194.577 994.725 C 192.666 997.954 191.997 1001.99 193.163 1005.6 C 197.366 1018.59 228.015 1055.95 237.91 1069.68 L 343.926 1217.13 L 414.232 1316.75 C 426.863 1334.78 438.902 1354.08 452.784 1371.12 C 468.88 1390.88 487.261 1409.16 504.188 1428.26 L 647.959 1589.38 L 881.093 1850.82 C 917.513 1891.41 952.956 1933.01 990.386 1972.67 C 995.078 1977.64 1000.42 1982.83 1006.69 1985.71 C 1009.53 1987.01 1011.59 1987.61 1014.6 1986.47 C 1034.38 1978.97 1097.56 1909.38 1115.17 1889.39 C 1162.37 1837.93 1209.05 1786 1255.2 1733.61 L 1395.72 1577.37 L 1517.35 1442.24 C 1533.36 1424.44 1550.28 1407.14 1565.78 1388.93 C 1580.23 1371.94 1592.47 1352.69 1605.7 1334.71 L 1685.61 1226.81 C 1716.04 1185.61 1746.84 1144.69 1778.02 1104.05 C 1795.54 1080.99 1813.92 1058.02 1830.49 1034.28 C 1833.78 1029.56 1838.25 1023.67 1837.97 1017.69 C 1837.73 1012.51 1834.34 1007.31 1831.29 1003.34 C 1820.33 989.057 1806.88 975.707 1794.77 962.329 C 1765.66 930.464 1736.31 898.816 1706.73 867.39 C 1694.01 853.716 1681.38 839.961 1668.84 826.125 C 1659.27 815.655 1649.59 804.277 1638.47 795.425 C 1617.23 778.507 1242.14 601.367 1222.85 597.642 C 1209.6 595.085 1193.36 596.776 1179.8 596.809 L 1092.92 596.972 L 909.075 596.845 C 878.849 596.869 847.917 595.527 817.767 597.172 z"/>
<path transform="translate(0,0)" fill="rgb(0,0,1)" d="M 1067.75 484.556 C 1017.63 482.068 965.745 482.422 915.689 485.793 C 889.353 487.566 860.503 493.114 834.542 492.855 C 828.013 492.789 819.748 491.483 814.646 487.042 C 811.319 484.145 809.457 479.578 808.654 475.333 C 804.565 453.723 805.146 425.14 804.075 402.685 L 797.267 270.526 C 795.695 240.09 794.302 209.645 793.089 179.192 C 792.317 161.169 789.597 140.814 792.62 123.005 C 793.976 115.02 797.469 107.405 803.098 101.51 C 807.549 96.849 813.866 94.1712 819.941 92.3355 C 833.158 88.3417 847.789 87.0644 861.462 85.3419 C 905.89 79.7452 950.76 77.6019 995.502 76.4452 C 997.201 76.3622 998.902 76.296 1000.6 76.2465 C 1059.96 74.8586 1119.34 76.7862 1178.48 82.0203 C 1196.81 83.5839 1217.71 84.2171 1235.52 88.8624 C 1242.23 90.6132 1249.56 92.9604 1254.58 97.951 C 1264.44 107.752 1267.12 117.146 1267.24 130.592 C 1267.43 153.871 1264.71 177.798 1263.07 201.026 L 1252.33 340.217 L 1245.73 424.295 C 1244.55 441.492 1244.54 459.735 1241.64 476.715 C 1240.85 481.357 1239.09 485.074 1235.68 488.368 C 1231.56 492.348 1226.78 494.836 1220.98 495.054 C 1206.26 495.607 1189.7 491.342 1174.84 490.142 C 1139.2 487.309 1103.49 485.446 1067.75 484.556 z M 996.634 96.5561 C 969.534 97.0776 830.797 102.112 817.438 116.774 C 813.381 121.228 812.643 128.057 812.365 133.796 C 811.659 148.376 813.184 163.427 813.877 178.007 L 816.299 240.745 C 817.921 280.908 820.552 321.019 822.555 361.164 C 824.195 394.053 824.989 427.273 827.939 460.046 C 828.271 464.025 828.761 467.99 829.407 471.93 C 857.175 471.767 884.738 467.02 912.445 465.451 C 962.209 462.632 1012.69 462.775 1062.5 464.51 C 1097.27 465.331 1132.02 466.934 1166.72 469.319 C 1184.7 470.652 1202.85 473.4 1220.83 474.134 C 1223.96 449.287 1224.3 423.834 1226.26 398.839 L 1238.37 250.321 L 1244.54 169.816 C 1245.72 154.395 1248.34 137.857 1246.86 122.487 C 1241 113.232 1236.08 109.806 1225.44 107.445 C 1203.09 102.484 1178.82 101.868 1155.99 100.312 C 1103.49 96.7314 1049.21 93.4376 996.634 96.5561 z"/>
<path transform="translate(0,0)" fill="rgb(254,254,254)" d="M 829.407 471.93 C 828.761 467.99 828.271 464.025 827.939 460.046 C 824.989 427.273 824.195 394.053 822.555 361.164 C 820.552 321.019 817.921 280.908 816.299 240.745 L 813.877 178.007 C 813.184 163.427 811.659 148.376 812.365 133.796 C 812.643 128.057 813.381 121.228 817.438 116.774 C 830.797 102.112 969.534 97.0776 996.634 96.5561 C 1049.21 93.4376 1103.49 96.7314 1155.99 100.312 C 1178.82 101.868 1203.09 102.484 1225.44 107.445 C 1236.08 109.806 1241 113.232 1246.86 122.487 C 1248.34 137.857 1245.72 154.395 1244.54 169.816 L 1238.37 250.321 L 1226.26 398.839 C 1224.3 423.834 1223.96 449.287 1220.83 474.134 C 1202.85 473.4 1184.7 470.652 1166.72 469.319 C 1132.02 466.934 1097.27 465.331 1062.5 464.51 C 1012.69 462.775 962.209 462.632 912.445 465.451 C 884.738 467.02 857.175 471.767 829.407 471.93 z M 985.112 113.439 C 961.123 114.404 843.182 118.35 830.882 131.048 C 829.227 136.111 828.805 141.279 828.754 146.575 C 828.553 167.487 831.263 188.759 832.29 209.669 C 833.388 232.028 834.051 325.956 841.578 341.686 C 843.143 344.958 845.473 347.012 848.947 348.023 C 862.937 352.095 899.342 347.733 915.697 347.07 C 936.544 346.174 957.404 345.593 978.268 345.326 C 1012.3 345.015 1046.33 346.316 1080.24 349.223 C 1100.17 351.129 1200.69 362.2 1211.21 353.789 C 1213.55 351.922 1214.08 350.548 1214.62 347.663 C 1218.11 328.915 1217.46 307.793 1218.97 288.674 C 1222.3 246.453 1226.53 204.202 1228.91 161.92 C 1229.41 153.079 1232.2 135.228 1226.03 128.336 C 1212.65 113.368 1018.94 112.557 989.798 113.269 C 988.234 113.307 986.673 113.336 985.112 113.439 z M 1003.18 381.497 C 995.421 387.866 991.85 397.23 987.605 406.068 C 983.614 400.41 980.65 395.294 973.873 392.809 L 971.912 393.558 C 970.581 396.846 971.347 401.042 972.76 404.234 C 974.55 408.278 977.562 412.157 980.048 415.818 C 979.844 421.673 979.678 426.748 983.192 431.796 C 984.785 432.404 985.143 432.982 986.841 432.224 C 995.483 428.366 1005.46 399.761 1008.18 390.464 C 1009.09 387.377 1009.21 386.444 1007.59 383.662 C 1006.16 382.916 1004.71 382.044 1003.18 381.497 z M 919.902 382.518 C 916.824 392.119 917.781 402.75 917.914 412.707 C 912.548 406.008 902.698 391.324 893.414 391.304 C 893.018 391.303 892.636 391.453 892.248 391.528 C 891.222 393.797 891.701 394.882 892.502 397.123 C 894.628 403.076 900.1 408.409 904.282 413.067 C 909.443 419.549 915.876 430.139 923.954 432.694 C 925.542 432.313 926.452 432.502 927.45 431.058 C 928.897 428.963 929.291 426.626 929.454 424.127 C 929.774 419.252 928.621 389.273 927.617 386.557 C 927.018 384.937 926.642 383.977 925.05 383.316 C 923.272 382.578 921.79 382.58 919.902 382.518 z M 1056.16 382.913 C 1049.02 386.039 1037.83 389.272 1033.76 396.094 C 1033.93 404.054 1046.97 413.522 1051.55 420.447 C 1048.38 422.982 1038.98 427.451 1038.6 431.559 C 1038.44 433.392 1038.82 434.595 1039.35 436.318 C 1045.76 435.752 1053.71 434.325 1057.96 428.903 C 1060.29 425.925 1060.93 421.904 1060.21 418.257 C 1058.65 410.392 1052.96 404.479 1047.75 398.735 C 1051.87 396.495 1059.55 393.357 1061.25 388.772 C 1061.79 387.325 1061.06 386.708 1060.45 385.427 C 1059.09 384.601 1057.63 383.48 1056.16 382.913 z M 1120.69 387.644 C 1111.72 395.541 1101.12 402.866 1092.89 411.429 C 1098.09 418.777 1109.2 436.055 1118.27 438.137 C 1118.55 438.199 1118.83 438.225 1119.1 438.269 C 1120.76 436.282 1122.64 434.966 1122.09 432.086 C 1120.73 425.009 1110.75 418.605 1106.4 412.896 C 1114 407.026 1123.44 401.011 1128.46 392.723 L 1128.71 390.21 C 1126.98 388.223 1126.29 387.932 1123.52 387.606 C 1122.63 387.501 1121.59 387.592 1120.69 387.644 z"/>
<path transform="translate(0,0)" fill="rgb(0,0,1)" d="M 1080.24 349.223 C 1046.33 346.316 1012.3 345.015 978.268 345.326 C 957.404 345.593 936.544 346.174 915.697 347.07 C 899.342 347.733 862.937 352.095 848.947 348.023 C 845.473 347.012 843.143 344.958 841.578 341.686 C 834.051 325.956 833.388 232.028 832.29 209.669 C 831.263 188.759 828.553 167.487 828.754 146.575 C 828.805 141.279 829.227 136.111 830.882 131.048 C 843.182 118.35 961.123 114.404 985.112 113.439 C 986.673 113.336 988.234 113.307 989.798 113.269 C 1018.94 112.557 1212.65 113.368 1226.03 128.336 C 1232.2 135.228 1229.41 153.079 1228.91 161.92 C 1226.53 204.202 1222.3 246.453 1218.97 288.674 C 1217.46 307.793 1218.11 328.915 1214.62 347.663 C 1214.08 350.548 1213.55 351.922 1211.21 353.789 C 1200.69 362.2 1100.17 351.129 1080.24 349.223 z M 1007.98 173.749 C 1002.08 177.619 941.99 255.097 941.154 259.977 C 940.794 262.08 941.852 264.451 943.264 265.935 C 945.467 268.252 948.453 269.215 951.517 269.771 C 953.474 268.638 955.328 267.414 956.874 265.743 C 963.645 258.422 1016.99 187.919 1017.88 183.798 C 1018.42 181.31 1017.72 178.316 1015.94 176.491 C 1013.73 174.225 1010.93 174.032 1007.98 173.749 z M 1081.93 203.558 C 1073.85 211.522 1041.28 242.709 1041.66 252.889 C 1041.74 255.149 1042.76 257.319 1044.71 258.553 C 1047.01 260.014 1049.59 259.93 1052.16 259.745 C 1060.79 251.705 1091.25 221.624 1092.22 211.261 C 1092.42 209.205 1091.43 206.84 1089.8 205.593 C 1087.49 203.827 1084.76 203.532 1081.93 203.558 z"/>
<path transform="translate(0,0)" fill="rgb(254,254,254)" d="M 951.517 269.771 C 948.453 269.215 945.467 268.252 943.264 265.935 C 941.852 264.451 940.794 262.08 941.154 259.977 C 941.99 255.097 1002.08 177.619 1007.98 173.749 C 1010.93 174.032 1013.73 174.225 1015.94 176.491 C 1017.72 178.316 1018.42 181.31 1017.88 183.798 C 1016.99 187.919 963.645 258.422 956.874 265.743 C 955.328 267.414 953.474 268.638 951.517 269.771 z"/>
<path transform="translate(0,0)" fill="rgb(254,254,254)" d="M 1052.16 259.745 C 1049.59 259.93 1047.01 260.014 1044.71 258.553 C 1042.76 257.319 1041.74 255.149 1041.66 252.889 C 1041.28 242.709 1073.85 211.522 1081.93 203.558 C 1084.76 203.532 1087.49 203.827 1089.8 205.593 C 1091.43 206.84 1092.42 209.205 1092.22 211.261 C 1091.25 221.624 1060.79 251.705 1052.16 259.745 z"/>
<path transform="translate(0,0)" fill="rgb(0,0,1)" d="M 371.74 744.822 C 367.857 743.968 363.83 742.575 360.591 740.216 C 356.445 737.195 354.214 733.464 352.142 728.852 C 342.982 708.458 335.987 687.036 328.07 666.135 L 279.63 537.513 L 246.269 450.9 C 240.118 434.74 231.693 416.987 229.333 399.795 C 227.873 389.154 232.28 374.997 239.021 366.481 C 250.299 352.231 299.986 331.597 318.163 323.26 C 396.739 287.22 476.337 254.007 558.659 227.461 C 575.804 221.933 594.154 214.324 612.118 212.35 C 623.83 211.598 634.789 213.569 644.045 221.333 C 650.063 226.381 652.685 232.189 655.224 239.39 C 663.267 262.199 668.54 286.456 675.268 309.721 C 692.623 369.978 709.46 430.383 725.778 490.93 C 731.072 510.532 736.487 530.101 742.023 549.635 C 745.606 562.401 750.704 576.285 751.698 589.501 C 751.98 593.246 751.187 595.883 748.606 598.617 C 745.731 601.663 741.896 603.731 738.047 605.281 C 729.712 608.637 719.993 610.103 711.255 612.184 C 697.785 615.393 684.392 618.92 671.089 622.762 C 603.441 642.502 526.474 673.205 462.825 703.834 C 444.813 712.502 388.374 744.803 371.74 744.822 z M 612.512 233.179 C 582.665 239.259 552.775 250.866 524.122 261.098 C 448.181 288.058 373.785 319.185 301.272 354.337 C 289.739 359.933 260.169 371.495 253.267 382.1 C 249.453 387.963 249.783 396.778 251.391 403.296 C 255.349 419.332 262.656 435.259 268.605 450.657 L 301.127 535.198 L 345.04 653.63 C 351.908 672.546 362.511 707.438 372.445 723.704 C 374.388 724.165 375.662 724.123 377.516 723.473 C 384.865 720.899 392.343 716.075 399.307 712.512 C 413.922 705.044 428.594 697.686 443.321 690.44 C 534.985 645.016 631.471 610.057 730.958 586.224 C 724.48 559.598 716.195 533.329 708.822 506.932 L 672.296 375.109 L 649.431 293.944 C 645.352 279.384 641.89 264.167 636.783 249.941 C 634.848 244.552 632.597 237.928 627.349 234.98 C 622.681 232.358 617.652 232.766 612.512 233.179 z"/>
<path transform="translate(0,0)" fill="rgb(254,254,254)" d="M 372.445 723.704 C 362.511 707.438 351.908 672.546 345.04 653.63 L 301.127 535.198 L 268.605 450.657 C 262.656 435.259 255.349 419.332 251.391 403.296 C 249.783 396.778 249.453 387.963 253.267 382.1 C 260.169 371.495 289.739 359.933 301.272 354.337 C 373.785 319.185 448.181 288.058 524.122 261.098 C 552.775 250.866 582.665 239.259 612.512 233.179 C 617.652 232.766 622.681 232.358 627.349 234.98 C 632.597 237.928 634.848 244.552 636.783 249.941 C 641.89 264.167 645.352 279.384 649.431 293.944 L 672.296 375.109 L 708.822 506.932 C 716.195 533.329 724.48 559.598 730.958 586.224 C 631.471 610.057 534.985 645.016 443.321 690.44 C 428.594 697.686 413.922 705.044 399.307 712.512 C 392.343 716.075 384.865 720.899 377.516 723.473 C 375.662 724.123 374.388 724.165 372.445 723.704 z M 611.218 251.249 C 591.165 254.536 570.24 263.395 550.989 269.843 C 470.423 297.208 391.519 329.241 314.677 365.78 C 302.567 371.487 276.323 382.021 268.214 390.924 C 266.799 396.135 269.334 404.422 270.936 409.573 C 275.197 423.283 281.254 436.614 286.526 449.977 C 293.506 467.933 300.318 485.953 306.962 504.036 L 330.286 567.192 C 334.816 579.491 338.711 592.666 344.857 604.251 C 348.357 607.858 352.09 609.718 356.603 611.796 C 370.604 608.248 384.32 600.66 397.419 594.588 L 468.306 561.537 C 515.309 540.173 563.226 521.346 611.353 502.706 C 624.324 497.682 671.834 482.926 677.788 472.355 C 679.665 469.022 678.604 464.16 677.96 460.559 C 673.78 437.214 665.687 413.359 659.407 390.446 C 652.687 365.932 645.358 341.607 638.467 317.145 C 633.896 300.92 629.939 284.453 624.968 268.351 C 623.311 262.988 620.767 255.351 615.529 252.513 C 614.337 251.868 612.492 251.553 611.218 251.249 z M 611.677 528.322 C 604.605 536.836 601.886 561.743 602.883 572.527 C 603.164 575.566 603.668 577.921 605.45 580.459 L 607.042 580.836 C 612.021 576.999 613.079 571.458 614.665 565.694 L 625.279 569.549 C 629.269 570.917 633.261 572.811 637.533 572.251 C 639.703 570.759 639.886 570.41 640.953 567.985 C 639.988 564.998 638.688 563.728 635.846 562.328 C 630.001 559.447 622.526 558.232 616.184 556.681 C 617.095 549.369 620.849 536.343 616.471 530.028 C 614.801 529.275 613.476 528.754 611.677 528.322 z M 563.847 560.428 C 559.894 568.029 559.951 575.589 559.779 583.929 C 554.696 577.339 551.08 571.472 543.195 568.183 L 540.798 568.477 C 539.568 571.314 539.952 573.428 541.052 576.305 C 543.525 582.777 549.13 588.128 553.668 593.285 L 559.624 598.98 C 559.624 603.503 559.145 608.306 560.907 612.542 C 563.184 614.598 563.383 614.579 566.455 614.881 C 568.768 613.58 569.258 613.401 569.929 610.618 C 571.301 604.928 573.282 568.487 571.718 564.725 C 571.321 563.77 570.564 563.008 569.987 562.149 C 567.861 561.279 566.137 560.671 563.847 560.428 z M 621.495 584.047 L 618.053 586.303 L 617.609 588.585 C 620.169 592.093 624.742 593.011 628.841 593.647 C 632.421 594.204 636.229 593.819 639.779 593.197 C 642.288 591.854 642.913 591.96 643.899 589.339 C 641.626 586.155 637.316 585.563 633.676 584.945 C 629.643 584.261 625.573 584.161 621.495 584.047 z M 478.383 592.645 C 476.775 594.78 475.196 595.973 475.837 598.911 C 477.448 606.294 488.398 613.005 494.275 617.106 C 491.568 622.057 489.318 625.037 490.993 630.77 C 493.034 632.583 493.118 632.397 495.882 632.413 C 500.256 630.438 502.024 626.757 504.462 622.829 C 507.494 626.304 510.341 630.419 514.679 632.233 C 516.566 632.087 517.271 631.709 518.76 630.554 C 519.754 627.551 520.34 625.867 519.39 622.688 C 516.924 619.085 512.48 617.625 508.587 615.925 C 512.25 609.542 516.105 604.465 515.252 596.828 L 514.157 595.507 C 509.799 595.928 506.682 599.079 504.058 602.338 C 502.446 604.34 500.977 606.459 499.521 608.575 C 493.12 603.17 486.162 595.877 478.383 592.645 z M 426.541 611.52 C 421.167 618.338 420.563 627.324 419.104 635.635 C 411.552 632.076 401.576 625.69 393.166 626.521 C 390.916 628.016 390.961 628.186 390.1 630.774 C 390.943 633.888 392.005 634.609 394.844 636.153 C 402.102 640.103 410.028 642.769 417.282 646.834 C 416.712 654.525 413.678 666.228 418.78 672.536 C 418.991 672.797 419.224 673.041 419.446 673.293 C 422.414 671.932 424.01 671.344 425.253 668.057 C 426.848 663.84 427.132 658.655 427.717 654.192 C 434.945 658.026 441.935 662.528 450.362 662.49 C 452.585 661.392 452.478 661.404 453.378 659.08 C 453.044 656.65 452.704 655.197 450.655 653.641 C 445.113 649.434 436.437 646.864 430.211 642.874 C 431.022 634.952 434.95 620.359 431.735 613.286 C 429.93 612.045 428.697 611.805 426.541 611.52 z"/>
<path transform="translate(0,0)" fill="rgb(0,0,1)" d="M 1676.56 752.452 C 1673.91 754.485 1671.23 756.212 1667.98 757.138 C 1657.57 760.097 1608.57 729.266 1596.63 723.007 C 1539.29 692.937 1481.01 664.553 1420.45 641.512 C 1396.47 632.549 1372.39 623.852 1348.22 615.421 C 1334.02 610.519 1317.74 606.727 1304.65 599.472 C 1299.3 596.503 1293.95 591.848 1292.28 585.735 C 1291.21 581.825 1291.32 577.559 1292.08 573.605 C 1294.6 560.433 1298.6 547.142 1301.88 534.107 C 1311.02 498.783 1320.39 463.52 1329.99 428.318 L 1354.94 334.284 C 1360.2 314.437 1370.44 266.558 1380.23 251.294 C 1386.44 241.607 1397.58 237.469 1408.3 235.2 C 1412.8 234.899 1416.91 234.96 1421.36 235.841 C 1445.51 240.628 1479.22 253.46 1502.86 261.811 C 1584.28 290.163 1663.92 323.368 1741.36 361.248 C 1754.18 367.634 1771.63 374.561 1782.16 384.152 C 1791.96 393.066 1797.08 403.943 1797.61 417.246 C 1797.8 421.924 1797.11 426.143 1795.79 430.614 C 1791.03 446.712 1784.73 462.595 1779.13 478.437 L 1743.61 577.376 L 1708.16 675.433 C 1700.97 695.434 1694.43 715.935 1686.26 735.548 C 1683.68 741.76 1681.11 747.376 1676.56 752.452 z M 1408.26 255.177 C 1403.77 257.009 1399.12 258.675 1396.95 263.401 C 1390.37 277.729 1387.24 296.022 1383.1 311.359 C 1373.67 345.769 1364.46 380.239 1355.48 414.769 L 1325.52 525.727 C 1321.05 542.578 1314.5 560.884 1312.53 578.191 C 1328.57 586.55 1347.1 591.573 1364.2 597.519 C 1385.61 605.058 1406.88 612.957 1428.02 621.214 C 1481.69 642.026 1530.15 664.835 1581.25 691.136 C 1609.09 705.46 1636.76 719.678 1663.38 736.201 L 1669.29 721.843 L 1744.63 512.611 L 1764.77 456.232 C 1768.88 444.714 1773.78 432.967 1776.32 420.995 C 1777.4 415.898 1776.65 411.296 1774.5 406.546 C 1764.64 384.769 1567.87 307.288 1534.04 294.459 C 1508.98 284.953 1483.47 276.217 1458.1 267.571 C 1443.43 262.574 1423.77 254.125 1408.26 255.177 z"/>
<path transform="translate(0,0)" fill="rgb(0,0,1)" d="M 344.857 604.251 C 338.711 592.666 334.816 579.491 330.286 567.192 L 306.962 504.036 C 300.318 485.953 293.506 467.933 286.526 449.977 C 281.254 436.614 275.197 423.283 270.936 409.573 C 269.334 404.422 266.799 396.135 268.214 390.924 C 276.323 382.021 302.567 371.487 314.677 365.78 C 391.519 329.241 470.423 297.208 550.989 269.843 C 570.24 263.395 591.165 254.536 611.218 251.249 C 612.492 251.553 614.337 251.868 615.529 252.513 C 620.767 255.351 623.311 262.988 624.968 268.351 C 629.939 284.453 633.896 300.92 638.467 317.145 C 645.358 341.607 652.687 365.932 659.407 390.446 C 665.687 413.359 673.78 437.214 677.96 460.559 C 678.604 464.16 679.665 469.022 677.788 472.355 C 671.834 482.926 624.324 497.682 611.353 502.706 C 563.226 521.346 515.309 540.173 468.306 561.537 L 397.419 594.588 C 384.32 600.66 370.604 608.248 356.603 611.796 C 352.09 609.718 348.357 607.858 344.857 604.251 z M 515.626 384.696 C 510.624 389.995 496.039 422.969 496.183 429.851 C 496.216 431.43 496.871 432.774 498.02 433.91 C 500.199 436.066 503.717 436.445 506.585 436.86 C 513.091 431.418 526.979 400.689 526.908 392.338 C 526.887 389.869 526.424 388.661 524.49 387.061 C 522.337 385.28 518.287 384.962 515.626 384.696 z M 440.124 401.78 C 437.658 402.955 435.531 404.051 434.02 406.457 C 425.229 420.456 419.636 439.212 413.426 454.574 C 409.366 464.617 404.312 474.715 400.832 484.94 C 399.803 487.961 398.953 490.956 400.776 493.919 C 402.544 496.793 406.399 497.832 409.428 498.69 C 412.092 496.504 413.9 494.41 415.52 491.355 C 421.005 481.01 447.021 419.341 448.39 410.287 C 448.794 407.615 448.148 406.418 446.738 404.21 C 444.408 402.783 442.824 402.201 440.124 401.78 z"/>
<path transform="translate(0,0)" fill="rgb(254,254,254)" d="M 1312.53 578.191 C 1314.5 560.884 1321.05 542.578 1325.52 525.727 L 1355.48 414.769 C 1364.46 380.239 1373.67 345.769 1383.1 311.359 C 1387.24 296.022 1390.37 277.729 1396.95 263.401 C 1399.12 258.675 1403.77 257.009 1408.26 255.177 C 1423.77 254.125 1443.43 262.574 1458.1 267.571 C 1483.47 276.217 1508.98 284.953 1534.04 294.459 C 1567.87 307.288 1764.64 384.769 1774.5 406.546 C 1776.65 411.296 1777.4 415.898 1776.32 420.995 C 1773.78 432.967 1768.88 444.714 1764.77 456.232 L 1744.63 512.611 L 1669.29 721.843 L 1663.38 736.201 C 1636.76 719.678 1609.09 705.46 1581.25 691.136 C 1530.15 664.835 1481.69 642.026 1428.02 621.214 C 1406.88 612.957 1385.61 605.058 1364.2 597.519 C 1347.1 591.573 1328.57 586.55 1312.53 578.191 z M 1413.94 274.084 C 1410.12 277.288 1408.57 280.03 1406.9 284.692 C 1397.24 311.736 1391.75 341.42 1384.13 369.192 C 1379.77 385.051 1375.58 400.996 1371.01 416.789 C 1367.04 430.494 1361.37 444.875 1360.01 459.123 C 1359.49 464.545 1359.57 469.513 1363.47 473.758 C 1367.08 477.691 1418.79 495.205 1427.32 498.529 C 1482.78 520.253 1537.68 543.367 1591.98 567.847 C 1617.24 579.329 1641.91 593.021 1667.46 603.692 C 1672.72 605.888 1679.15 608.005 1684.91 607.561 C 1688.36 607.296 1691.05 605.872 1693.25 603.198 C 1694.3 601.91 1694.36 601.768 1695.19 600.507 C 1705.45 576.68 1759.56 428.934 1756.99 416.9 C 1756.04 412.445 1749.38 408.097 1745.89 405.829 C 1735.49 399.051 1723.2 394.103 1711.99 388.713 C 1689.56 377.754 1666.89 367.292 1644 357.335 C 1608.82 342.357 1440.41 272.637 1413.94 274.084 z M 1394.57 516.629 C 1393.09 518.625 1391.86 520.335 1391.32 522.805 C 1389.62 530.659 1388.7 564.923 1390.09 572.943 C 1390.39 574.714 1390.99 576.119 1391.79 577.71 L 1393.11 577.977 C 1403.18 570.138 1411.24 559.528 1420.62 550.788 C 1425.71 545.502 1429.92 541.361 1431.68 533.987 L 1431.04 532.267 C 1427.97 531.46 1424.55 532.945 1421.91 534.511 C 1414.45 538.925 1407.54 548.489 1401.72 555.02 C 1401.52 544.411 1404.41 528.141 1400.62 518.309 C 1398.34 516.751 1397.27 516.862 1394.57 516.629 z M 1474.51 556.329 C 1471.61 564.973 1472.84 575.239 1474.25 584.101 C 1467.93 590.38 1461.61 595.594 1458.98 604.42 L 1459.62 606.714 C 1462.14 607.565 1464.31 606.982 1466.65 605.849 C 1470.48 603.994 1474.04 600.782 1477.35 598.14 C 1478.07 602.314 1478.35 606.932 1480.74 610.514 L 1484.28 612.687 C 1486.87 610.408 1488.55 609.133 1488.64 605.383 C 1488.77 600.318 1487.14 595.092 1486.37 590.108 C 1491.6 584.909 1499.72 578.177 1499.28 569.973 C 1499.26 569.58 1499.16 569.196 1499.09 568.807 L 1497.46 567.737 C 1491.53 568.984 1488.48 572.509 1484.45 576.829 C 1483.97 571.237 1484.4 562.091 1480.1 557.999 C 1478.66 556.633 1476.41 556.667 1474.51 556.329 z M 1539.09 590.423 C 1535.13 595.88 1535.35 600.044 1536.4 606.524 C 1537.16 611.174 1538.13 615.802 1539.06 620.419 C 1536.01 626.285 1531.78 632.486 1531.05 639.111 C 1532.17 641.85 1532.08 641.681 1534.82 642.838 C 1537.01 642.618 1538.42 642.073 1540.39 641.093 C 1543.74 643.098 1546.43 646.5 1550.25 646.949 C 1551.41 646.23 1551.52 645.357 1551.85 644.081 C 1552.58 641.302 1552.48 637.597 1551.98 634.774 L 1550.33 623.179 C 1554.45 615.052 1563.13 604.047 1563.11 594.961 C 1562.29 593.617 1562.33 592.946 1560.69 592.536 C 1558.32 591.946 1556.68 592.42 1554.76 593.899 C 1551.56 596.356 1548.92 602.273 1546.98 605.877 C 1546.67 601.423 1547.15 594.979 1543.53 591.808 C 1542.18 590.625 1540.79 590.723 1539.09 590.423 z M 1604.98 619.265 C 1599.25 628.37 1604.69 640.683 1605.43 650.751 C 1600.03 655.082 1592.44 660.12 1591.42 667.628 C 1591.21 669.144 1591.32 669.371 1591.5 670.705 C 1593.36 671.921 1593.67 671.974 1595.97 671.416 C 1600.37 670.348 1603.83 666.313 1606.89 663.213 C 1606.84 668.455 1606.24 674.082 1607.95 679.092 L 1609.53 680.686 C 1612.75 680.64 1614.2 679.642 1616.61 677.596 C 1618.46 669.711 1618.03 661.572 1617.73 653.529 C 1624.39 648.246 1632.17 642.952 1634.01 634.129 L 1633.22 631.894 C 1630.77 630.981 1628.82 631.422 1626.48 632.429 C 1622.42 634.181 1618.7 638.034 1615.39 640.94 C 1614.79 635.094 1614.83 625.676 1610.33 621.306 C 1608.82 619.845 1606.97 619.494 1604.98 619.265 z"/>
<path transform="translate(0,0)" fill="rgb(0,0,1)" d="M 1695.19 600.507 C 1694.36 601.768 1694.3 601.91 1693.25 603.198 C 1691.05 605.872 1688.36 607.296 1684.91 607.561 C 1679.15 608.005 1672.72 605.888 1667.46 603.692 C 1641.91 593.021 1617.24 579.329 1591.98 567.847 C 1537.68 543.367 1482.78 520.253 1427.32 498.529 C 1418.79 495.205 1367.08 477.691 1363.47 473.758 C 1359.57 469.513 1359.49 464.545 1360.01 459.123 C 1361.37 444.875 1367.04 430.494 1371.01 416.789 C 1375.58 400.996 1379.77 385.051 1384.13 369.192 C 1391.75 341.42 1397.24 311.736 1406.9 284.692 C 1408.57 280.03 1410.12 277.288 1413.94 274.084 C 1440.41 272.637 1608.82 342.357 1644 357.335 C 1666.89 367.292 1689.56 377.754 1711.99 388.713 C 1723.2 394.103 1735.49 399.051 1745.89 405.829 C 1749.38 408.097 1756.04 412.445 1756.99 416.9 C 1759.56 428.934 1705.45 576.68 1695.19 600.507 z M 1530.09 386.881 C 1520.07 393.813 1465.3 441.7 1459.83 449.78 C 1459.59 452.35 1459.27 453.418 1460.89 455.647 C 1462.87 458.386 1466.55 459.134 1469.66 459.457 C 1478.2 453.825 1539.31 402.942 1540.57 397.286 C 1541.09 394.908 1540.78 392.753 1539.22 390.824 C 1536.97 388.054 1533.4 387.394 1530.09 386.881 z M 1601.86 425.058 C 1592.27 430.077 1554 458.385 1550.76 467.249 C 1550.03 469.252 1550.12 470.468 1550.41 472.522 C 1552.03 474.931 1552.57 475.874 1555.49 476.814 C 1556.55 477.155 1558.32 477.06 1559.38 477.083 C 1568.65 471.4 1608.82 443.471 1610.96 434.291 C 1611.42 432.349 1610.95 431.427 1610.49 429.541 C 1607.94 426.344 1605.75 425.782 1601.86 425.058 z"/>
<path transform="translate(0,0)" fill="rgb(0,0,1)" d="M 987.605 406.068 C 991.85 397.23 995.421 387.866 1003.18 381.497 C 1004.71 382.044 1006.16 382.916 1007.59 383.662 C 1009.21 386.444 1009.09 387.377 1008.18 390.464 C 1005.46 399.761 995.483 428.366 986.841 432.224 C 985.143 432.982 984.785 432.404 983.192 431.796 C 979.678 426.748 979.844 421.673 980.048 415.818 C 977.562 412.157 974.55 408.278 972.76 404.234 C 971.347 401.042 970.581 396.846 971.912 393.558 L 973.873 392.809 C 980.65 395.294 983.614 400.41 987.605 406.068 z"/>
<path transform="translate(0,0)" fill="rgb(0,0,1)" d="M 917.914 412.707 C 917.781 402.75 916.824 392.119 919.902 382.518 C 921.79 382.58 923.272 382.578 925.05 383.316 C 926.642 383.977 927.018 384.937 927.617 386.557 C 928.621 389.273 929.774 419.252 929.454 424.127 C 929.291 426.626 928.897 428.963 927.45 431.058 C 926.452 432.502 925.542 432.313 923.954 432.694 C 915.876 430.139 909.443 419.549 904.282 413.067 C 900.1 408.409 894.628 403.076 892.502 397.123 C 891.701 394.882 891.222 393.797 892.248 391.528 C 892.636 391.453 893.018 391.303 893.414 391.304 C 902.698 391.324 912.548 406.008 917.914 412.707 z"/>
<path transform="translate(0,0)" fill="rgb(0,0,1)" d="M 1051.55 420.447 C 1046.97 413.522 1033.93 404.054 1033.76 396.094 C 1037.83 389.272 1049.02 386.039 1056.16 382.913 C 1057.63 383.48 1059.09 384.601 1060.45 385.427 C 1061.06 386.708 1061.79 387.325 1061.25 388.772 C 1059.55 393.357 1051.87 396.495 1047.75 398.735 C 1052.96 404.479 1058.65 410.392 1060.21 418.257 C 1060.93 421.904 1060.29 425.925 1057.96 428.903 C 1053.71 434.325 1045.76 435.752 1039.35 436.318 C 1038.82 434.595 1038.44 433.392 1038.6 431.559 C 1038.98 427.451 1048.38 422.982 1051.55 420.447 z"/>
<path transform="translate(0,0)" fill="rgb(254,254,254)" d="M 506.585 436.86 C 503.717 436.445 500.199 436.066 498.02 433.91 C 496.871 432.774 496.216 431.43 496.183 429.851 C 496.039 422.969 510.624 389.995 515.626 384.696 C 518.287 384.962 522.337 385.28 524.49 387.061 C 526.424 388.661 526.887 389.869 526.908 392.338 C 526.979 400.689 513.091 431.418 506.585 436.86 z"/>
<path transform="translate(0,0)" fill="rgb(254,254,254)" d="M 1469.66 459.457 C 1466.55 459.134 1462.87 458.386 1460.89 455.647 C 1459.27 453.418 1459.59 452.35 1459.83 449.78 C 1465.3 441.7 1520.07 393.813 1530.09 386.881 C 1533.4 387.394 1536.97 388.054 1539.22 390.824 C 1540.78 392.753 1541.09 394.908 1540.57 397.286 C 1539.31 402.942 1478.2 453.825 1469.66 459.457 z"/>
<path transform="translate(0,0)" fill="rgb(0,0,1)" d="M 1092.89 411.429 C 1101.12 402.866 1111.72 395.541 1120.69 387.644 C 1121.59 387.592 1122.63 387.501 1123.52 387.606 C 1126.29 387.932 1126.98 388.223 1128.71 390.21 L 1128.46 392.723 C 1123.44 401.011 1114 407.026 1106.4 412.896 C 1110.75 418.605 1120.73 425.009 1122.09 432.086 C 1122.64 434.966 1120.76 436.282 1119.1 438.269 C 1118.83 438.225 1118.55 438.199 1118.27 438.137 C 1109.2 436.055 1098.09 418.777 1092.89 411.429 z"/>
<path transform="translate(0,0)" fill="rgb(254,254,254)" d="M 409.428 498.69 C 406.399 497.832 402.544 496.793 400.776 493.919 C 398.953 490.956 399.803 487.961 400.832 484.94 C 404.312 474.715 409.366 464.617 413.426 454.574 C 419.636 439.212 425.229 420.456 434.02 406.457 C 435.531 404.051 437.658 402.955 440.124 401.78 C 442.824 402.201 444.408 402.783 446.738 404.21 C 448.148 406.418 448.794 407.615 448.39 410.287 C 447.021 419.341 421.005 481.01 415.52 491.355 C 413.9 494.41 412.092 496.504 409.428 498.69 z"/>
<path transform="translate(0,0)" fill="rgb(254,254,254)" d="M 1559.38 477.083 C 1558.32 477.06 1556.55 477.155 1555.49 476.814 C 1552.57 475.874 1552.03 474.931 1550.41 472.522 C 1550.12 470.468 1550.03 469.252 1550.76 467.249 C 1554 458.385 1592.27 430.077 1601.86 425.058 C 1605.75 425.782 1607.94 426.344 1610.49 429.541 C 1610.95 431.427 1611.42 432.349 1610.96 434.291 C 1608.82 443.471 1568.65 471.4 1559.38 477.083 z"/>
<path transform="translate(0,0)" fill="rgb(0,0,1)" d="M 1420.62 550.788 C 1411.24 559.528 1403.18 570.138 1393.11 577.977 L 1391.79 577.71 C 1390.99 576.119 1390.39 574.714 1390.09 572.943 C 1388.7 564.923 1389.62 530.659 1391.32 522.805 C 1391.86 520.335 1393.09 518.625 1394.57 516.629 C 1397.27 516.862 1398.34 516.751 1400.62 518.309 C 1404.41 528.141 1401.52 544.411 1401.72 555.02 C 1407.54 548.489 1414.45 538.925 1421.91 534.511 C 1424.55 532.945 1427.97 531.46 1431.04 532.267 L 1431.68 533.987 C 1429.92 541.361 1425.71 545.502 1420.62 550.788 z"/>
<path transform="translate(0,0)" fill="rgb(0,0,1)" d="M 614.665 565.694 C 613.079 571.458 612.021 576.999 607.042 580.836 L 605.45 580.459 C 603.668 577.921 603.164 575.566 602.883 572.527 C 601.886 561.743 604.605 536.836 611.677 528.322 C 613.476 528.754 614.801 529.275 616.471 530.028 C 620.849 536.343 617.095 549.369 616.184 556.681 C 622.526 558.232 630.001 559.447 635.846 562.328 C 638.688 563.728 639.988 564.998 640.953 567.985 C 639.886 570.41 639.703 570.759 637.533 572.251 C 633.261 572.811 629.269 570.917 625.279 569.549 L 614.665 565.694 z"/>
<path transform="translate(0,0)" fill="rgb(0,0,1)" d="M 1474.25 584.101 C 1472.84 575.239 1471.61 564.973 1474.51 556.329 C 1476.41 556.667 1478.66 556.633 1480.1 557.999 C 1484.4 562.091 1483.97 571.237 1484.45 576.829 C 1488.48 572.509 1491.53 568.984 1497.46 567.737 L 1499.09 568.807 C 1499.16 569.196 1499.26 569.58 1499.28 569.973 C 1499.72 578.177 1491.6 584.909 1486.37 590.108 C 1487.14 595.092 1488.77 600.318 1488.64 605.383 C 1488.55 609.133 1486.87 610.408 1484.28 612.687 L 1480.74 610.514 C 1478.35 606.932 1478.07 602.314 1477.35 598.14 C 1474.04 600.782 1470.48 603.994 1466.65 605.849 C 1464.31 606.982 1462.14 607.565 1459.62 606.714 L 1458.98 604.42 C 1461.61 595.594 1467.93 590.38 1474.25 584.101 z"/>
<path transform="translate(0,0)" fill="rgb(0,0,1)" d="M 559.779 583.929 C 559.951 575.589 559.894 568.029 563.847 560.428 C 566.137 560.671 567.861 561.279 569.987 562.149 C 570.564 563.008 571.321 563.77 571.718 564.725 C 573.282 568.487 571.301 604.928 569.929 610.618 C 569.258 613.401 568.768 613.58 566.455 614.881 C 563.383 614.579 563.184 614.598 560.907 612.542 C 559.145 608.306 559.624 603.503 559.624 598.98 L 553.668 593.285 C 549.13 588.128 543.525 582.777 541.052 576.305 C 539.952 573.428 539.568 571.314 540.798 568.477 L 543.195 568.183 C 551.08 571.472 554.696 577.339 559.779 583.929 z"/>
<path transform="translate(0,0)" fill="rgb(0,0,1)" d="M 639.779 593.197 C 636.229 593.819 632.421 594.204 628.841 593.647 C 624.742 593.011 620.169 592.093 617.609 588.585 L 618.053 586.303 L 621.495 584.047 C 625.573 584.161 629.643 584.261 633.676 584.945 C 637.316 585.563 641.626 586.155 643.899 589.339 C 642.913 591.96 642.288 591.854 639.779 593.197 z"/>
<path transform="translate(0,0)" fill="rgb(0,0,1)" d="M 1539.06 620.419 C 1538.13 615.802 1537.16 611.174 1536.4 606.524 C 1535.35 600.044 1535.13 595.88 1539.09 590.423 C 1540.79 590.723 1542.18 590.625 1543.53 591.808 C 1547.15 594.979 1546.67 601.423 1546.98 605.877 C 1548.92 602.273 1551.56 596.356 1554.76 593.899 C 1556.68 592.42 1558.32 591.946 1560.69 592.536 C 1562.33 592.946 1562.29 593.617 1563.11 594.961 C 1563.13 604.047 1554.45 615.052 1550.33 623.179 L 1551.98 634.774 C 1552.48 637.597 1552.58 641.302 1551.85 644.081 C 1551.52 645.357 1551.41 646.23 1550.25 646.949 C 1546.43 646.5 1543.74 643.098 1540.39 641.093 C 1538.42 642.073 1537.01 642.618 1534.82 642.838 C 1532.08 641.681 1532.17 641.85 1531.05 639.111 C 1531.78 632.486 1536.01 626.285 1539.06 620.419 z"/>
<path transform="translate(0,0)" fill="rgb(0,0,1)" d="M 494.275 617.106 C 488.398 613.005 477.448 606.294 475.837 598.911 C 475.196 595.973 476.775 594.78 478.383 592.645 C 486.162 595.877 493.12 603.17 499.521 608.575 C 500.977 606.459 502.446 604.34 504.058 602.338 C 506.682 599.079 509.799 595.928 514.157 595.507 L 515.252 596.828 C 516.105 604.465 512.25 609.542 508.587 615.925 C 512.48 617.625 516.924 619.085 519.39 622.688 C 520.34 625.867 519.754 627.551 518.76 630.554 C 517.271 631.709 516.566 632.087 514.679 632.233 C 510.341 630.419 507.494 626.304 504.462 622.829 C 502.024 626.757 500.256 630.438 495.882 632.413 C 493.118 632.397 493.034 632.583 490.993 630.77 C 489.318 625.037 491.568 622.057 494.275 617.106 z"/>
<path transform="translate(0,0)" fill="rgb(0,0,1)" d="M 1115.17 1889.39 C 1097.56 1909.38 1034.38 1978.97 1014.6 1986.47 C 1011.59 1987.61 1009.53 1987.01 1006.69 1985.71 C 1000.42 1982.83 995.078 1977.64 990.386 1972.67 C 952.956 1933.01 917.513 1891.41 881.093 1850.82 L 647.959 1589.38 L 504.188 1428.26 C 487.261 1409.16 468.88 1390.88 452.784 1371.12 C 438.902 1354.08 426.863 1334.78 414.232 1316.75 L 343.926 1217.13 L 237.91 1069.68 C 228.015 1055.95 197.366 1018.59 193.163 1005.6 C 191.997 1001.99 192.666 997.954 194.577 994.725 C 200.487 984.74 408.328 775.534 420.955 767.388 C 435.557 757.968 460.155 750.614 476.844 743.38 L 646.421 670.956 L 766.858 619.305 C 783.574 612.062 800.212 601.964 817.767 597.172 C 847.917 595.527 878.849 596.869 909.075 596.845 L 1092.92 596.972 L 1179.8 596.809 C 1193.36 596.776 1209.6 595.085 1222.85 597.642 C 1242.14 601.367 1617.23 778.507 1638.47 795.425 C 1649.59 804.277 1659.27 815.655 1668.84 826.125 C 1681.38 839.961 1694.01 853.716 1706.73 867.39 C 1736.31 898.816 1765.66 930.464 1794.77 962.329 C 1806.88 975.707 1820.33 989.057 1831.29 1003.34 C 1834.34 1007.31 1837.73 1012.51 1837.97 1017.69 C 1838.25 1023.67 1833.78 1029.56 1830.49 1034.28 C 1813.92 1058.02 1795.54 1080.99 1778.02 1104.05 C 1746.84 1144.69 1716.04 1185.61 1685.61 1226.81 L 1605.7 1334.71 C 1592.47 1352.69 1580.23 1371.94 1565.78 1388.93 C 1550.28 1407.14 1533.36 1424.44 1517.35 1442.24 L 1395.72 1577.37 L 1255.2 1733.61 C 1209.05 1786 1162.37 1837.93 1115.17 1889.39 z M 945.099 617.496 L 859.651 617.791 C 846.246 617.815 828.967 615.495 816.103 618.873 C 811.299 620.134 806.215 624.98 802.49 628.235 C 773.22 653.815 745.977 682.419 718.077 709.508 C 678.464 747.97 638.178 785.662 599.278 824.872 C 594.221 829.97 589.027 835.123 584.492 840.694 L 642.25 841.176 C 717.331 841.878 792.416 842.188 867.5 842.103 C 910.327 842.249 953.413 843.729 996.209 842.32 L 995.872 705.442 C 995.861 676.133 996.601 646.568 995.171 617.304 L 945.099 617.496 z M 1095.94 617.5 C 1069.32 617.551 1042.53 616.98 1015.93 617.736 L 1016.06 842.383 C 1060.95 844.367 1106.21 843.87 1151.15 844.205 C 1219.9 845.071 1288.66 845.427 1357.41 845.274 C 1384.29 845.401 1411.29 846.045 1438.15 845.495 C 1382.44 786.631 1325.78 728.665 1268.2 671.62 C 1250.33 653.968 1233.58 632.034 1212.71 618.015 C 1198.34 616.399 1183.39 617.236 1168.95 617.293 L 1095.94 617.5 z M 1265.58 639.883 C 1292.44 665.607 1318.02 692.509 1343.91 719.205 L 1422.72 800.352 C 1434.85 813.01 1446.88 825.776 1458.78 838.65 C 1466.72 847.27 1474.61 857.634 1484.05 864.622 C 1493.72 871.784 1521.98 881.349 1534.17 886.716 C 1621.09 924.976 1709.56 960.452 1797.3 996.814 C 1787.32 982.385 1772.96 969.487 1760.95 956.592 L 1696.01 886.385 C 1682.05 871.393 1668.18 856.309 1654.42 841.134 C 1646.02 831.957 1637.5 821.379 1627.73 813.647 C 1614.64 803.279 1570.82 783.926 1553.54 775.368 C 1475.33 736.646 1396.48 699.228 1317.02 663.129 C 1305.12 657.696 1276.41 642.66 1265.58 639.883 z M 744.587 651.001 C 669.888 683.737 594.895 715.797 519.617 747.179 L 467.721 769.355 C 456.186 774.244 443.157 778.674 432.712 785.573 C 414.232 797.78 380.273 835.497 363.186 852.5 L 284.084 932.118 C 270.538 945.671 256.257 958.589 243.263 972.672 L 243.097 973.87 L 243.561 974.171 L 446.578 892.816 L 501.225 870.6 C 511.237 866.517 522.474 862.895 531.779 857.414 C 547.886 847.927 561.848 830.306 575.357 817.44 C 614.625 780.648 653.317 743.245 691.417 705.244 C 708.438 688.574 730.315 670.617 745.218 652.486 C 744.902 651.117 745.272 651.508 744.587 651.001 z M 517.382 886.914 L 343.894 956.384 C 302.109 972.678 260.466 989.336 218.971 1006.35 C 227.932 1021.63 238.969 1035.78 249.44 1050.04 L 288.7 1103.97 L 416.937 1284.63 C 432.867 1306.89 448.655 1329.26 464.301 1351.72 C 525.392 1329.87 586.601 1308.34 647.925 1287.15 C 642.768 1268.06 636.306 1249.24 630.342 1230.38 C 620.996 1200.16 611.403 1170.01 601.562 1139.94 C 582.401 1079.13 562.782 1018.46 542.705 957.95 C 539.359 947.882 522.9 893.347 519.347 888.077 C 519.332 888.053 517.6 886.966 517.592 886.961 C 517.529 886.927 517.452 886.93 517.382 886.914 z M 1492.75 892.473 C 1466.78 976.989 1441.44 1061.7 1416.73 1146.59 C 1407.78 1176.05 1399.02 1205.56 1390.45 1235.12 C 1385.37 1252.47 1376.27 1274.7 1376.07 1292.54 C 1381.21 1298.62 1540.72 1351.75 1562.13 1359.92 C 1580.15 1333.96 1598.74 1308.4 1617.89 1283.27 L 1724.57 1140.12 C 1743.59 1114.43 1762.85 1088.92 1782.35 1063.6 C 1792.18 1050.72 1801.7 1037.29 1812.14 1024.9 C 1786.33 1012.81 1759.37 1002.74 1732.96 992.045 L 1614.76 943.52 L 1533.5 909.497 C 1520.38 903.93 1506.4 896.367 1492.75 892.473 z M 1154.66 931.279 C 1145.94 933.146 1138.42 936.478 1133.4 944.235 C 1129.08 950.892 1126.89 961.035 1128.86 968.806 C 1130.83 976.515 1136.93 981.927 1143.64 985.674 C 1150.98 989.771 1166.76 992.847 1170.03 1001.29 C 1171.24 1004.42 1170.91 1008.26 1168.96 1011.04 C 1166.34 1014.78 1161.67 1016.6 1157.25 1016.72 C 1149.69 1016.94 1142.56 1011.29 1136.97 1006.84 C 1133.19 1010.83 1129.48 1014.79 1126.03 1019.08 C 1134.22 1028.99 1142.71 1033.1 1155.46 1034.62 C 1165.17 1033.79 1174.59 1031.62 1181.02 1023.6 C 1186.11 1017.25 1188.87 1007.75 1187.53 999.684 C 1186.19 991.602 1181.07 985.271 1174.35 980.847 C 1165.02 974.701 1148.38 971.893 1144.49 960.353 C 1144.58 957.538 1145.2 955.82 1147.21 953.837 C 1150.07 951.024 1153.63 948.918 1157.74 949.062 C 1162.88 949.243 1167.78 952.179 1171.09 956.002 C 1171.48 956.448 1171.84 956.909 1172.22 957.363 C 1176.15 953.386 1180.3 949.522 1183.66 945.042 C 1175.4 936.28 1167.95 931.753 1155.6 931.305 L 1154.66 931.279 z M 881.017 932.332 C 870.188 934.034 861.405 937.958 854.76 947.021 C 844.917 960.446 843.713 981.089 846.483 997.03 C 848.557 1008.97 854.088 1020.79 864.399 1027.73 C 871.695 1032.64 880.407 1034.52 889.058 1032.75 C 899.828 1030.56 907.336 1023.32 914.037 1015.11 C 910.175 1010.84 906.492 1007.15 901.47 1004.19 C 895.728 1010.23 890.423 1015.72 881.387 1015.63 C 877.012 1015.59 873.188 1013.6 870.332 1010.34 C 863.031 1001.99 861.908 986.994 862.941 976.296 C 863.773 967.678 866.468 957.971 873.583 952.365 C 876.961 949.702 881.077 948.494 885.339 949.32 C 892.063 950.625 896.046 955.075 900.379 959.914 L 913.972 946.584 C 903.338 937.906 895.516 931.332 881.017 932.332 z M 1080.57 933.111 C 1072.76 935.492 1066.16 938.688 1062.1 946.14 C 1058.36 953.012 1056.94 961.188 1059.36 968.729 C 1062.43 978.33 1070.11 983.874 1078.81 988.045 C 1087.32 992.123 1099.45 995.789 1103.27 1005.22 C 1102.81 1008.69 1102.05 1010.26 1099.18 1012.38 C 1094.6 1015.76 1090.88 1017.14 1085.18 1016.12 C 1078.72 1014.96 1074.04 1010.16 1069.88 1005.42 L 1057.28 1019.08 C 1067.15 1028.42 1076.03 1032.87 1089.7 1034.23 C 1098.73 1032.9 1107.12 1030.95 1112.87 1023.14 C 1117.74 1016.52 1120.42 1007.05 1118.83 998.91 C 1117.33 991.199 1112.22 984.951 1105.77 980.705 C 1098.1 975.658 1076.43 970.818 1074.66 961.005 C 1074.21 958.534 1074.96 955.717 1076.53 953.761 C 1078.52 951.285 1083.39 949.761 1086.5 949.603 C 1093.89 949.228 1102.67 959.038 1108.52 954.151 C 1111.03 952.053 1112.33 948.591 1112.19 945.384 C 1112.06 942.195 1109.91 939.193 1107.46 937.323 C 1100.39 931.931 1089.06 932.553 1080.57 933.111 z M 1008.65 934.124 C 998.581 966.508 987.971 999.092 979.274 1031.87 L 995.821 1031.76 L 1000.84 1014.39 L 1026.25 1014.74 C 1029.15 1015 1030.56 1014.56 1032.46 1017.12 C 1035.27 1020.89 1035.8 1027.54 1037.53 1031.94 L 1053.86 1031.67 C 1043.73 999.126 1033.17 966.716 1022.19 934.449 C 1017.68 934.332 1013.16 934.131 1008.65 934.124 z M 925.574 934.761 L 925.64 1031.98 L 974.892 1031.85 L 975.004 1014.98 L 943.068 1015.03 L 943.049 934.697 C 937.25 934.682 931.364 934.488 925.574 934.761 z M 1258.75 1104.25 C 1250.78 1105.94 1243.64 1108.84 1238.91 1115.86 C 1234.55 1122.33 1233.29 1133.34 1235.08 1140.83 C 1236.9 1148.44 1242.27 1153.89 1248.91 1157.66 C 1256.31 1161.86 1273.38 1165.91 1276.56 1174.44 C 1277.26 1176.34 1276.73 1178.49 1275.7 1180.2 C 1273.81 1183.35 1270.76 1186.14 1267.09 1186.92 C 1257.41 1188.97 1248.98 1182.41 1241.62 1177.15 C 1238.17 1181.59 1234.82 1185.91 1231.99 1190.8 C 1241.56 1198.91 1251.1 1203.47 1263.78 1204.22 C 1272.9 1202.64 1281.71 1200.29 1287.31 1192.2 C 1291.49 1186.15 1293.32 1176.88 1291.89 1169.68 C 1290.37 1161.99 1284.98 1156.05 1278.53 1151.93 C 1270.98 1147.11 1251.27 1142.19 1249.9 1132.29 C 1249.46 1129.09 1251.71 1125.47 1253.93 1123.31 C 1256.49 1120.81 1259.77 1119.97 1263.28 1120.15 C 1269.62 1120.48 1274.66 1124.48 1279.36 1128.35 C 1282.67 1125.07 1286.6 1121.87 1288.59 1117.59 C 1288.5 1114.83 1288.61 1114.07 1286.64 1111.92 C 1281.05 1105.86 1266.48 1103.7 1258.75 1104.25 z M 1087.9 1105.4 C 1087.76 1137.62 1087.88 1169.84 1088.25 1202.06 L 1105.27 1202 C 1105.5 1183.04 1105.42 1164.09 1105.04 1145.14 C 1114.98 1164.6 1125.18 1184.14 1136.09 1203.07 C 1141.06 1202.49 1147.04 1202.73 1151.83 1201.65 L 1151.97 1105.98 L 1135.52 1105.98 L 1135.63 1165.72 C 1124.28 1146.39 1116.71 1124.8 1104.83 1105.78 L 1087.9 1105.4 z M 741.221 1105.85 C 750.828 1137.85 760.351 1170.68 771.503 1202.14 L 787.404 1202.17 L 811.708 1126.06 C 813.913 1119.39 816.276 1112.73 818.237 1105.99 L 799.184 1105.88 C 792.818 1129.43 787.527 1154.43 779.068 1177.29 C 771.529 1157.05 764.549 1127.4 759.848 1105.76 L 741.221 1105.85 z M 843.824 1105.89 C 833.948 1138.26 822.388 1170.3 811.855 1202.5 C 817.499 1202.54 823.172 1202.71 828.811 1202.47 C 831.454 1195.63 833.912 1188.62 836.875 1181.92 L 858.25 1181.95 C 861.13 1182.06 863.131 1181.48 865.142 1183.92 C 868.742 1188.29 869.978 1196.72 872.071 1202.08 L 890.068 1201.99 C 878.673 1170.39 870.67 1137.11 858.021 1106.09 L 843.824 1105.89 z M 899.612 1106.01 C 899.826 1138.05 899.851 1170.1 899.687 1202.15 L 916.512 1202.13 L 916.579 1163.02 L 930.295 1162.99 C 934.33 1174.71 938.388 1186.38 943.008 1197.9 C 943.873 1199.48 944.125 1201.06 945.948 1201.66 C 951.08 1203.34 958.504 1202.26 963.938 1202.07 C 957.497 1188.69 951.912 1174.94 946.279 1161.2 C 953.786 1154.39 959.678 1147.83 960.043 1137.08 C 960.326 1128.74 957.849 1118.58 951.689 1112.59 C 940.394 1101.62 914.293 1106 899.612 1106.01 z M 974.656 1105.86 C 975.001 1138.06 975.08 1170.26 974.891 1202.46 L 992.101 1202.56 L 992.273 1105.96 L 974.656 1105.86 z M 1031.66 1105.85 C 1022.3 1138.3 1010.65 1169.97 1001.09 1202.33 L 1017.99 1202.58 L 1024.93 1181.9 L 1049.25 1181.84 C 1050.84 1181.94 1053.18 1181.63 1054.33 1182.8 C 1058.51 1187.03 1059.95 1196.35 1061.89 1202 L 1078.33 1201.96 C 1069.02 1169.92 1059.31 1136.87 1046.89 1105.89 L 1031.66 1105.85 z M 1164.29 1105.95 L 1164.35 1122.08 L 1188.78 1122.03 C 1187.95 1148.52 1187.44 1175.48 1188.38 1201.96 L 1205 1202 L 1204.97 1181.5 L 1205.02 1122.02 L 1226.79 1121.97 L 1226.84 1106 L 1164.29 1105.95 z M 650.979 1309.23 C 625.896 1315.77 600.959 1325.71 576.442 1334.2 C 544.216 1345.38 510.884 1355.97 479.423 1369.04 C 525.266 1422.1 572.937 1473.8 619.652 1526.11 C 707.401 1625.63 795.702 1724.67 884.55 1823.21 C 911.316 1853.96 938.833 1884.04 967.077 1913.44 C 955.518 1892.01 944.875 1870.2 933.705 1848.58 L 843.71 1673.6 L 714.857 1428.72 C 705.257 1410.39 657.953 1315.36 650.979 1309.23 z M 675.245 1309.25 C 703.966 1361.07 730.685 1414.07 758.244 1466.52 L 906.8 1750.97 L 965.109 1864.09 C 976.367 1886.38 986.783 1910.43 999.658 1931.79 C 999.666 1913.75 999.964 1895.66 999.43 1877.63 L 999.034 1681.89 C 998.747 1682.12 998.456 1682.35 998.171 1682.58 C 990.175 1689.13 982.999 1701.04 973.294 1704.54 L 970.765 1704.24 C 969.536 1702.57 969.252 1702.28 969.629 1700.1 C 971.093 1691.61 987.241 1675.72 994.062 1670.23 L 997.899 1670.6 C 1000.95 1664.35 996.985 1352.84 996.899 1311.79 C 925.104 1310.65 853.303 1310.02 781.5 1309.91 C 746.09 1309.71 710.654 1308.83 675.245 1309.25 z M 1023.15 1311.52 C 1021.72 1311.8 1020.31 1311.55 1019.55 1312.95 C 1018.21 1315.4 1018.3 1318.62 1018.21 1321.36 C 1017.66 1339.34 1018.48 1357.5 1018.54 1375.5 C 1018.45 1412.93 1018.58 1450.35 1018.92 1487.77 C 1020.44 1636.96 1021.17 1786.16 1021.1 1935.36 C 1030.85 1919.49 1039.06 1902.19 1047.79 1885.72 L 1113.43 1759.82 C 1119.43 1748.45 1124.89 1736.66 1131.2 1725.47 C 1145.84 1698.73 1159.41 1671.4 1173.6 1644.41 L 1268 1464.26 C 1283.96 1433.37 1300.09 1402.57 1316.39 1371.87 C 1326.53 1352.56 1337.64 1333.07 1346.19 1313.01 L 1156.37 1311.95 C 1112.02 1311.67 1067.5 1310.52 1023.15 1311.52 z M 1370.45 1315.46 C 1357.25 1336.83 1346.23 1359.8 1334.48 1382.02 L 1261.83 1521.35 C 1208.52 1622.13 1155.79 1723.21 1103.62 1824.59 C 1086.35 1858.01 1068.15 1890.99 1051.27 1924.61 C 1082.99 1895.24 1110.87 1861.77 1140.24 1830.11 L 1423.8 1514.95 L 1506.85 1422.5 C 1520.35 1407.39 1533.32 1391.31 1547.49 1376.85 C 1525.17 1370.23 1503.41 1361.51 1481.47 1353.75 C 1444.57 1340.68 1407.56 1327.92 1370.45 1315.46 z"/>
<path transform="translate(0,0)" fill="rgb(0,0,1)" d="M 419.104 635.635 C 420.563 627.324 421.167 618.338 426.541 611.52 C 428.697 611.805 429.93 612.045 431.735 613.286 C 434.95 620.359 431.022 634.952 430.211 642.874 C 436.437 646.864 445.113 649.434 450.655 653.641 C 452.704 655.197 453.044 656.65 453.378 659.08 C 452.478 661.404 452.585 661.392 450.362 662.49 C 441.935 662.528 434.945 658.026 427.717 654.192 C 427.132 658.655 426.848 663.84 425.253 668.057 C 424.01 671.344 422.414 671.932 419.446 673.293 C 419.224 673.041 418.991 672.797 418.78 672.536 C 413.678 666.228 416.712 654.525 417.282 646.834 C 410.028 642.769 402.102 640.103 394.844 636.153 C 392.005 634.609 390.943 633.888 390.1 630.774 C 390.961 628.186 390.916 628.016 393.166 626.521 C 401.576 625.69 411.552 632.076 419.104 635.635 z"/>
<path transform="translate(0,0)" fill="rgb(254,254,254)" d="M 584.492 840.694 C 589.027 835.123 594.221 829.97 599.278 824.872 C 638.178 785.662 678.464 747.97 718.077 709.508 C 745.977 682.419 773.22 653.815 802.49 628.235 C 806.215 624.98 811.299 620.134 816.103 618.873 C 828.967 615.495 846.246 617.815 859.651 617.791 L 945.099 617.496 L 995.171 617.304 C 996.601 646.568 995.861 676.133 995.872 705.442 L 996.209 842.32 C 953.413 843.729 910.327 842.249 867.5 842.103 C 792.416 842.188 717.331 841.878 642.25 841.176 L 584.492 840.694 z M 816.066 689.365 C 813.556 691.04 812.904 691.155 811.867 693.933 C 813.054 696.162 813.905 696.778 816.419 697.393 C 828.858 700.433 853.482 698.206 867.316 698.209 C 906.124 698.217 945.044 698.817 983.836 697.958 C 986.497 696.169 986.326 696.19 987.053 693.043 C 986.444 691.76 986.375 690.705 984.955 690.153 C 978.6 687.687 836.323 688.737 816.066 689.365 z"/>
<path transform="translate(0,0)" fill="rgb(254,254,254)" d="M 1015.93 617.736 C 1042.53 616.98 1069.32 617.551 1095.94 617.5 L 1168.95 617.293 C 1183.39 617.236 1198.34 616.399 1212.71 618.015 C 1233.58 632.034 1250.33 653.968 1268.2 671.62 C 1325.78 728.665 1382.44 786.631 1438.15 845.495 C 1411.29 846.045 1384.29 845.401 1357.41 845.274 C 1288.66 845.427 1219.9 845.071 1151.15 844.205 C 1106.21 843.87 1060.95 844.367 1016.06 842.383 L 1015.93 617.736 z M 1045.87 668.146 C 1044.11 670.969 1043.82 672.132 1043.87 675.462 C 1045.19 677.698 1045.37 678.332 1048.07 679.002 C 1055.49 680.84 1214.06 680.822 1225.21 678.947 C 1227.34 676.154 1227.56 675.913 1227.71 672.423 C 1226.5 670.458 1225.76 669.434 1223.4 668.866 C 1212.49 666.243 1182.23 668.096 1169.48 668.08 C 1128.35 668.028 1086.98 667.089 1045.87 668.146 z"/>
<path transform="translate(0,0)" fill="rgb(0,0,1)" d="M 1605.43 650.751 C 1604.69 640.683 1599.25 628.37 1604.98 619.265 C 1606.97 619.494 1608.82 619.845 1610.33 621.306 C 1614.83 625.676 1614.79 635.094 1615.39 640.94 C 1618.7 638.034 1622.42 634.181 1626.48 632.429 C 1628.82 631.422 1630.77 630.981 1633.22 631.894 L 1634.01 634.129 C 1632.17 642.952 1624.39 648.246 1617.73 653.529 C 1618.03 661.572 1618.46 669.711 1616.61 677.596 C 1614.2 679.642 1612.75 680.64 1609.53 680.686 L 1607.95 679.092 C 1606.24 674.082 1606.84 668.455 1606.89 663.213 C 1603.83 666.313 1600.37 670.348 1595.97 671.416 C 1593.67 671.974 1593.36 671.921 1591.5 670.705 C 1591.32 669.371 1591.21 669.144 1591.42 667.628 C 1592.44 660.12 1600.03 655.082 1605.43 650.751 z"/>
<path transform="translate(0,0)" fill="rgb(254,254,254)" d="M 1797.3 996.814 C 1709.56 960.452 1621.09 924.976 1534.17 886.716 C 1521.98 881.349 1493.72 871.784 1484.05 864.622 C 1474.61 857.634 1466.72 847.27 1458.78 838.65 C 1446.88 825.776 1434.85 813.01 1422.72 800.352 L 1343.91 719.205 C 1318.02 692.509 1292.44 665.607 1265.58 639.883 C 1276.41 642.66 1305.12 657.696 1317.02 663.129 C 1396.48 699.228 1475.33 736.646 1553.54 775.368 C 1570.82 783.926 1614.64 803.279 1627.73 813.647 C 1637.5 821.379 1646.02 831.957 1654.42 841.134 C 1668.18 856.309 1682.05 871.393 1696.01 886.385 L 1760.95 956.592 C 1772.96 969.487 1787.32 982.385 1797.3 996.814 z"/>
<path transform="translate(0,0)" fill="rgb(254,254,254)" d="M 243.561 974.171 L 243.097 973.87 L 243.263 972.672 C 256.257 958.589 270.538 945.671 284.084 932.118 L 363.186 852.5 C 380.273 835.497 414.232 797.78 432.712 785.573 C 443.157 778.674 456.186 774.244 467.721 769.355 L 519.617 747.179 C 594.895 715.797 669.888 683.737 744.587 651.001 C 745.272 651.508 744.902 651.117 745.218 652.486 C 730.315 670.617 708.438 688.574 691.417 705.244 C 653.317 743.245 614.625 780.648 575.357 817.44 C 561.848 830.306 547.886 847.927 531.779 857.414 C 522.474 862.895 511.237 866.517 501.225 870.6 L 446.578 892.816 L 243.561 974.171 z"/>
<path transform="translate(0,0)" fill="rgb(0,0,1)" d="M 1225.21 678.947 C 1214.06 680.822 1055.49 680.84 1048.07 679.002 C 1045.37 678.332 1045.19 677.698 1043.87 675.462 C 1043.82 672.132 1044.11 670.969 1045.87 668.146 C 1086.98 667.089 1128.35 668.028 1169.48 668.08 C 1182.23 668.096 1212.49 666.243 1223.4 668.866 C 1225.76 669.434 1226.5 670.458 1227.71 672.423 C 1227.56 675.913 1227.34 676.154 1225.21 678.947 z"/>
<path transform="translate(0,0)" fill="rgb(0,0,1)" d="M 983.836 697.958 C 945.044 698.817 906.124 698.217 867.316 698.209 C 853.482 698.206 828.858 700.433 816.419 697.393 C 813.905 696.778 813.054 696.162 811.867 693.933 C 812.904 691.155 813.556 691.04 816.066 689.365 C 836.323 688.737 978.6 687.687 984.955 690.153 C 986.375 690.705 986.444 691.76 987.053 693.043 C 986.326 696.19 986.497 696.169 983.836 697.958 z"/>
<path transform="translate(0,0)" fill="rgb(254,254,254)" d="M 218.971 1006.35 C 260.466 989.336 302.109 972.678 343.894 956.384 L 517.382 886.914 C 517.452 886.93 517.529 886.927 517.592 886.961 C 517.6 886.966 519.332 888.053 519.347 888.077 C 522.9 893.347 539.359 947.882 542.705 957.95 C 562.782 1018.46 582.401 1079.13 601.562 1139.94 C 611.403 1170.01 620.996 1200.16 630.342 1230.38 C 636.306 1249.24 642.768 1268.06 647.925 1287.15 C 586.601 1308.34 525.392 1329.87 464.301 1351.72 C 448.655 1329.26 432.867 1306.89 416.937 1284.63 L 288.7 1103.97 L 249.44 1050.04 C 238.969 1035.78 227.932 1021.63 218.971 1006.35 z"/>
<path transform="translate(0,0)" fill="rgb(254,254,254)" d="M 1562.13 1359.92 C 1540.72 1351.75 1381.21 1298.62 1376.07 1292.54 C 1376.27 1274.7 1385.37 1252.47 1390.45 1235.12 C 1399.02 1205.56 1407.78 1176.05 1416.73 1146.59 C 1441.44 1061.7 1466.78 976.989 1492.75 892.473 C 1506.4 896.367 1520.38 903.93 1533.5 909.497 L 1614.76 943.52 L 1732.96 992.045 C 1759.37 1002.74 1786.33 1012.81 1812.14 1024.9 C 1801.7 1037.29 1792.18 1050.72 1782.35 1063.6 C 1762.85 1088.92 1743.59 1114.43 1724.57 1140.12 L 1617.89 1283.27 C 1598.74 1308.4 1580.15 1333.96 1562.13 1359.92 z"/>
<path transform="translate(0,0)" fill="rgb(254,254,254)" d="M 1136.97 1006.84 C 1142.56 1011.29 1149.69 1016.94 1157.25 1016.72 C 1161.67 1016.6 1166.34 1014.78 1168.96 1011.04 C 1170.91 1008.26 1171.24 1004.42 1170.03 1001.29 C 1166.76 992.847 1150.98 989.771 1143.64 985.674 C 1136.93 981.927 1130.83 976.515 1128.86 968.806 C 1126.89 961.035 1129.08 950.892 1133.4 944.235 C 1138.42 936.478 1145.94 933.146 1154.66 931.279 L 1155.6 931.305 C 1167.95 931.753 1175.4 936.28 1183.66 945.042 C 1180.3 949.522 1176.15 953.386 1172.22 957.363 C 1171.84 956.909 1171.48 956.448 1171.09 956.002 C 1167.78 952.179 1162.88 949.243 1157.74 949.062 C 1153.63 948.918 1150.07 951.024 1147.21 953.837 C 1145.2 955.82 1144.58 957.538 1144.49 960.353 C 1148.38 971.893 1165.02 974.701 1174.35 980.847 C 1181.07 985.271 1186.19 991.602 1187.53 999.684 C 1188.87 1007.75 1186.11 1017.25 1181.02 1023.6 C 1174.59 1031.62 1165.17 1033.79 1155.46 1034.62 C 1142.71 1033.1 1134.22 1028.99 1126.03 1019.08 C 1129.48 1014.79 1133.19 1010.83 1136.97 1006.84 z"/>
<path transform="translate(0,0)" fill="rgb(254,254,254)" d="M 914.037 1015.11 C 907.336 1023.32 899.828 1030.56 889.058 1032.75 C 880.407 1034.52 871.695 1032.64 864.399 1027.73 C 854.088 1020.79 848.557 1008.97 846.483 997.03 C 843.713 981.089 844.917 960.446 854.76 947.021 C 861.405 937.958 870.188 934.034 881.017 932.332 C 895.516 931.332 903.338 937.906 913.972 946.584 L 900.379 959.914 C 896.046 955.075 892.063 950.625 885.339 949.32 C 881.077 948.494 876.961 949.702 873.583 952.365 C 866.468 957.971 863.773 967.678 862.941 976.296 C 861.908 986.994 863.031 1001.99 870.332 1010.34 C 873.188 1013.6 877.012 1015.59 881.387 1015.63 C 890.423 1015.72 895.728 1010.23 901.47 1004.19 C 906.492 1007.15 910.175 1010.84 914.037 1015.11 z"/>
<path transform="translate(0,0)" fill="rgb(254,254,254)" d="M 1069.88 1005.42 C 1074.04 1010.16 1078.72 1014.96 1085.18 1016.12 C 1090.88 1017.14 1094.6 1015.76 1099.18 1012.38 C 1102.05 1010.26 1102.81 1008.69 1103.27 1005.22 C 1099.45 995.789 1087.32 992.123 1078.81 988.045 C 1070.11 983.874 1062.43 978.33 1059.36 968.729 C 1056.94 961.188 1058.36 953.012 1062.1 946.14 C 1066.16 938.688 1072.76 935.492 1080.57 933.111 C 1089.06 932.553 1100.39 931.931 1107.46 937.323 C 1109.91 939.193 1112.06 942.195 1112.19 945.384 C 1112.33 948.591 1111.03 952.053 1108.52 954.151 C 1102.67 959.038 1093.89 949.228 1086.5 949.603 C 1083.39 949.761 1078.52 951.285 1076.53 953.761 C 1074.96 955.717 1074.21 958.534 1074.66 961.005 C 1076.43 970.818 1098.1 975.658 1105.77 980.705 C 1112.22 984.951 1117.33 991.199 1118.83 998.91 C 1120.42 1007.05 1117.74 1016.52 1112.87 1023.14 C 1107.12 1030.95 1098.73 1032.9 1089.7 1034.23 C 1076.03 1032.87 1067.15 1028.42 1057.28 1019.08 L 1069.88 1005.42 z"/>
<path transform="translate(0,0)" fill="rgb(254,254,254)" d="M 979.274 1031.87 C 987.971 999.092 998.581 966.508 1008.65 934.124 C 1013.16 934.131 1017.68 934.332 1022.19 934.449 C 1033.17 966.716 1043.73 999.126 1053.86 1031.67 L 1037.53 1031.94 C 1035.8 1027.54 1035.27 1020.89 1032.46 1017.12 C 1030.56 1014.56 1029.15 1015 1026.25 1014.74 L 1000.84 1014.39 L 995.821 1031.76 L 979.274 1031.87 z M 1016.35 966.679 C 1012.69 976.221 1008.39 986.436 1006.84 996.568 L 1007.6 997.786 C 1010.53 998.352 1013.04 998.514 1016.03 998.497 C 1018.84 998.493 1022.56 999.06 1024.96 997.414 C 1024.25 988.362 1020.52 974.692 1016.35 966.679 z"/>
<path transform="translate(0,0)" fill="rgb(254,254,254)" d="M 925.64 1031.98 L 925.574 934.761 C 931.364 934.488 937.25 934.682 943.049 934.697 L 943.068 1015.03 L 975.004 1014.98 L 974.892 1031.85 L 925.64 1031.98 z"/>
<path transform="translate(0,0)" fill="rgb(0,0,1)" d="M 1016.03 998.497 C 1013.04 998.514 1010.53 998.352 1007.6 997.786 L 1006.84 996.568 C 1008.39 986.436 1012.69 976.221 1016.35 966.679 C 1020.52 974.692 1024.25 988.362 1024.96 997.414 C 1022.56 999.06 1018.84 998.493 1016.03 998.497 z"/>
<path transform="translate(0,0)" fill="rgb(254,254,254)" d="M 1241.62 1177.15 C 1248.98 1182.41 1257.41 1188.97 1267.09 1186.92 C 1270.76 1186.14 1273.81 1183.35 1275.7 1180.2 C 1276.73 1178.49 1277.26 1176.34 1276.56 1174.44 C 1273.38 1165.91 1256.31 1161.86 1248.91 1157.66 C 1242.27 1153.89 1236.9 1148.44 1235.08 1140.83 C 1233.29 1133.34 1234.55 1122.33 1238.91 1115.86 C 1243.64 1108.84 1250.78 1105.94 1258.75 1104.25 C 1266.48 1103.7 1281.05 1105.86 1286.64 1111.92 C 1288.61 1114.07 1288.5 1114.83 1288.59 1117.59 C 1286.6 1121.87 1282.67 1125.07 1279.36 1128.35 C 1274.66 1124.48 1269.62 1120.48 1263.28 1120.15 C 1259.77 1119.97 1256.49 1120.81 1253.93 1123.31 C 1251.71 1125.47 1249.46 1129.09 1249.9 1132.29 C 1251.27 1142.19 1270.98 1147.11 1278.53 1151.93 C 1284.98 1156.05 1290.37 1161.99 1291.89 1169.68 C 1293.32 1176.88 1291.49 1186.15 1287.31 1192.2 C 1281.71 1200.29 1272.9 1202.64 1263.78 1204.22 C 1251.1 1203.47 1241.56 1198.91 1231.99 1190.8 C 1234.82 1185.91 1238.17 1181.59 1241.62 1177.15 z"/>
<path transform="translate(0,0)" fill="rgb(254,254,254)" d="M 1088.25 1202.06 C 1087.88 1169.84 1087.76 1137.62 1087.9 1105.4 L 1104.83 1105.78 C 1116.71 1124.8 1124.28 1146.39 1135.63 1165.72 L 1135.52 1105.98 L 1151.97 1105.98 L 1151.83 1201.65 C 1147.04 1202.73 1141.06 1202.49 1136.09 1203.07 C 1125.18 1184.14 1114.98 1164.6 1105.04 1145.14 C 1105.42 1164.09 1105.5 1183.04 1105.27 1202 L 1088.25 1202.06 z"/>
<path transform="translate(0,0)" fill="rgb(254,254,254)" d="M 771.503 1202.14 C 760.351 1170.68 750.828 1137.85 741.221 1105.85 L 759.848 1105.76 C 764.549 1127.4 771.529 1157.05 779.068 1177.29 C 787.527 1154.43 792.818 1129.43 799.184 1105.88 L 818.237 1105.99 C 816.276 1112.73 813.913 1119.39 811.708 1126.06 L 787.404 1202.17 L 771.503 1202.14 z"/>
<path transform="translate(0,0)" fill="rgb(254,254,254)" d="M 811.855 1202.5 C 822.388 1170.3 833.948 1138.26 843.824 1105.89 L 858.021 1106.09 C 870.67 1137.11 878.673 1170.39 890.068 1201.99 L 872.071 1202.08 C 869.978 1196.72 868.742 1188.29 865.142 1183.92 C 863.131 1181.48 861.13 1182.06 858.25 1181.95 L 836.875 1181.92 C 833.912 1188.62 831.454 1195.63 828.811 1202.47 C 823.172 1202.71 817.499 1202.54 811.855 1202.5 z M 850.984 1137.52 C 848.038 1146.44 844.923 1155.34 842.248 1164.35 L 853.918 1164.61 L 858.044 1164.34 C 860.205 1159.63 856.697 1152.47 854.972 1147.83 C 853.699 1144.4 852.535 1140.83 850.984 1137.52 z"/>
<path transform="translate(0,0)" fill="rgb(254,254,254)" d="M 899.687 1202.15 C 899.851 1170.1 899.826 1138.05 899.612 1106.01 C 914.293 1106 940.394 1101.62 951.689 1112.59 C 957.849 1118.58 960.326 1128.74 960.043 1137.08 C 959.678 1147.83 953.786 1154.39 946.279 1161.2 C 951.912 1174.94 957.497 1188.69 963.938 1202.07 C 958.504 1202.26 951.08 1203.34 945.948 1201.66 C 944.125 1201.06 943.873 1199.48 943.008 1197.9 C 938.388 1186.38 934.33 1174.71 930.295 1162.99 L 916.579 1163.02 L 916.512 1202.13 L 899.687 1202.15 z M 917.033 1122.98 L 916.937 1145.91 C 924.613 1145.94 932.651 1146.71 939.825 1143.52 C 941.941 1139.34 944.627 1133.72 942.538 1129.02 C 941.058 1125.68 937.268 1124.06 933.916 1123.3 C 928.703 1122.11 922.383 1122.85 917.033 1122.98 z"/>
<path transform="translate(0,0)" fill="rgb(254,254,254)" d="M 974.891 1202.46 C 975.08 1170.26 975.001 1138.06 974.656 1105.86 L 992.273 1105.96 L 992.101 1202.56 L 974.891 1202.46 z"/>
<path transform="translate(0,0)" fill="rgb(254,254,254)" d="M 1001.09 1202.33 C 1010.65 1169.97 1022.3 1138.3 1031.66 1105.85 L 1046.89 1105.89 C 1059.31 1136.87 1069.02 1169.92 1078.33 1201.96 L 1061.89 1202 C 1059.95 1196.35 1058.51 1187.03 1054.33 1182.8 C 1053.18 1181.63 1050.84 1181.94 1049.25 1181.84 L 1024.93 1181.9 L 1017.99 1202.58 L 1001.09 1202.33 z M 1039.38 1139.55 C 1036.88 1145.77 1031.62 1154.79 1031.79 1161.46 C 1032.42 1162.78 1032.5 1163.92 1033.99 1164.45 C 1036.56 1165.37 1039.57 1164.88 1042.25 1164.71 L 1046.47 1164.41 C 1048.3 1160.42 1046.43 1155.19 1044.95 1151.21 C 1043.68 1147.8 1042.18 1141.9 1039.38 1139.55 z"/>
<path transform="translate(0,0)" fill="rgb(254,254,254)" d="M 1164.35 1122.08 L 1164.29 1105.95 L 1226.84 1106 L 1226.79 1121.97 L 1205.02 1122.02 L 1204.97 1181.5 L 1205 1202 L 1188.38 1201.96 C 1187.44 1175.48 1187.95 1148.52 1188.78 1122.03 L 1164.35 1122.08 z"/>
<path transform="translate(0,0)" fill="rgb(0,0,1)" d="M 916.937 1145.91 L 917.033 1122.98 C 922.383 1122.85 928.703 1122.11 933.916 1123.3 C 937.268 1124.06 941.058 1125.68 942.538 1129.02 C 944.627 1133.72 941.941 1139.34 939.825 1143.52 C 932.651 1146.71 924.613 1145.94 916.937 1145.91 z"/>
<path transform="translate(0,0)" fill="rgb(0,0,1)" d="M 842.248 1164.35 C 844.923 1155.34 848.038 1146.44 850.984 1137.52 C 852.535 1140.83 853.699 1144.4 854.972 1147.83 C 856.697 1152.47 860.205 1159.63 858.044 1164.34 L 853.918 1164.61 L 842.248 1164.35 z"/>
<path transform="translate(0,0)" fill="rgb(0,0,1)" d="M 1042.25 1164.71 C 1039.57 1164.88 1036.56 1165.37 1033.99 1164.45 C 1032.5 1163.92 1032.42 1162.78 1031.79 1161.46 C 1031.62 1154.79 1036.88 1145.77 1039.38 1139.55 C 1042.18 1141.9 1043.68 1147.8 1044.95 1151.21 C 1046.43 1155.19 1048.3 1160.42 1046.47 1164.41 L 1042.25 1164.71 z"/>
<path transform="translate(0,0)" fill="rgb(254,254,254)" d="M 479.423 1369.04 C 510.884 1355.97 544.216 1345.38 576.442 1334.2 C 600.959 1325.71 625.896 1315.77 650.979 1309.23 C 657.953 1315.36 705.257 1410.39 714.857 1428.72 L 843.71 1673.6 L 933.705 1848.58 C 944.875 1870.2 955.518 1892.01 967.077 1913.44 C 938.833 1884.04 911.316 1853.96 884.55 1823.21 C 795.702 1724.67 707.401 1625.63 619.652 1526.11 C 572.937 1473.8 525.266 1422.1 479.423 1369.04 z"/>
<path transform="translate(0,0)" fill="rgb(254,254,254)" d="M 999.658 1931.79 C 986.783 1910.43 976.367 1886.38 965.109 1864.09 L 906.8 1750.97 L 758.244 1466.52 C 730.685 1414.07 703.966 1361.07 675.245 1309.25 C 710.654 1308.83 746.09 1309.71 781.5 1309.91 C 853.303 1310.02 925.104 1310.65 996.899 1311.79 C 996.985 1352.84 1000.95 1664.35 997.899 1670.6 L 994.062 1670.23 C 987.241 1675.72 971.093 1691.61 969.629 1700.1 C 969.252 1702.28 969.536 1702.57 970.765 1704.24 L 973.294 1704.54 C 982.999 1701.04 990.175 1689.13 998.171 1682.58 C 998.456 1682.35 998.747 1682.12 999.034 1681.89 L 999.43 1877.63 C 999.964 1895.66 999.666 1913.75 999.658 1931.79 z M 972.342 1651.44 C 965.046 1657.82 925.593 1701.42 924.717 1707.86 C 926.733 1710.6 928.043 1710.94 931.083 1712.34 C 937.584 1707.52 977.624 1661.95 978.361 1657.03 C 978.56 1655.7 977.496 1654.49 976.585 1653.64 C 975.606 1652.73 973.603 1651.95 972.342 1651.44 z"/>
<path transform="translate(0,0)" fill="rgb(254,254,254)" d="M 1021.1 1935.36 C 1021.17 1786.16 1020.44 1636.96 1018.92 1487.77 C 1018.58 1450.35 1018.45 1412.93 1018.54 1375.5 C 1018.48 1357.5 1017.66 1339.34 1018.21 1321.36 C 1018.3 1318.62 1018.21 1315.4 1019.55 1312.95 C 1020.31 1311.55 1021.72 1311.8 1023.15 1311.52 C 1067.5 1310.52 1112.02 1311.67 1156.37 1311.95 L 1346.19 1313.01 C 1337.64 1333.07 1326.53 1352.56 1316.39 1371.87 C 1300.09 1402.57 1283.96 1433.37 1268 1464.26 L 1173.6 1644.41 C 1159.41 1671.4 1145.84 1698.73 1131.2 1725.47 C 1124.89 1736.66 1119.43 1748.45 1113.43 1759.82 L 1047.79 1885.72 C 1039.06 1902.19 1030.85 1919.49 1021.1 1935.36 z M 1133.04 1575.43 C 1122.32 1589.93 1114.27 1608.29 1105.37 1624.09 L 1080.86 1667.66 C 1076.7 1675.1 1071.78 1682.74 1068.36 1690.54 C 1067.26 1693.04 1067.17 1693.95 1067.46 1696.59 C 1069.35 1698.85 1071.06 1699.61 1073.97 1700.05 C 1085.61 1684.99 1095.92 1661.94 1105.32 1644.89 C 1116.94 1623.81 1130.15 1602.99 1140.32 1581.21 C 1140.09 1579.54 1140.38 1578.8 1139 1577.62 C 1137.16 1576.06 1135.37 1575.82 1133.04 1575.43 z M 1070.74 1637.52 C 1065.29 1643.32 1054.74 1652.3 1053.69 1660.42 C 1054.6 1662.7 1055.07 1663.41 1057.5 1664.46 C 1058.25 1664.79 1059.21 1664.89 1060.01 1665.01 C 1065.42 1659.34 1077.09 1649.71 1077.24 1641.51 C 1075.92 1639.36 1075.29 1638.59 1072.69 1637.84 C 1072.05 1637.66 1071.39 1637.63 1070.74 1637.52 z M 1104.24 1719.8 C 1099.37 1725.46 1065.01 1781.69 1064.43 1786.36 C 1064.3 1787.43 1064.55 1788.51 1064.6 1789.58 C 1066.51 1792.55 1068.62 1793.15 1071.73 1794.34 C 1078.12 1785.53 1111.62 1731.8 1111.07 1723.86 C 1110.96 1722.36 1109.99 1721.9 1108.99 1720.9 L 1104.24 1719.8 z"/>
<path transform="translate(0,0)" fill="rgb(254,254,254)" d="M 1051.27 1924.61 C 1068.15 1890.99 1086.35 1858.01 1103.62 1824.59 C 1155.79 1723.21 1208.52 1622.13 1261.83 1521.35 L 1334.48 1382.02 C 1346.23 1359.8 1357.25 1336.83 1370.45 1315.46 C 1407.56 1327.92 1444.57 1340.68 1481.47 1353.75 C 1503.41 1361.51 1525.17 1370.23 1547.49 1376.85 C 1533.32 1391.31 1520.35 1407.39 1506.85 1422.5 L 1423.8 1514.95 L 1140.24 1830.11 C 1110.87 1861.77 1082.99 1895.24 1051.27 1924.61 z"/>
<path transform="translate(0,0)" fill="rgb(0,0,1)" d="M 1073.97 1700.05 C 1071.06 1699.61 1069.35 1698.85 1067.46 1696.59 C 1067.17 1693.95 1067.26 1693.04 1068.36 1690.54 C 1071.78 1682.74 1076.7 1675.1 1080.86 1667.66 L 1105.37 1624.09 C 1114.27 1608.29 1122.32 1589.93 1133.04 1575.43 C 1135.37 1575.82 1137.16 1576.06 1139 1577.62 C 1140.38 1578.8 1140.09 1579.54 1140.32 1581.21 C 1130.15 1602.99 1116.94 1623.81 1105.32 1644.89 C 1095.92 1661.94 1085.61 1684.99 1073.97 1700.05 z"/>
<path transform="translate(0,0)" fill="rgb(0,0,1)" d="M 1060.01 1665.01 C 1059.21 1664.89 1058.25 1664.79 1057.5 1664.46 C 1055.07 1663.41 1054.6 1662.7 1053.69 1660.42 C 1054.74 1652.3 1065.29 1643.32 1070.74 1637.52 C 1071.39 1637.63 1072.05 1637.66 1072.69 1637.84 C 1075.29 1638.59 1075.92 1639.36 1077.24 1641.51 C 1077.09 1649.71 1065.42 1659.34 1060.01 1665.01 z"/>
<path transform="translate(0,0)" fill="rgb(0,0,1)" d="M 931.083 1712.34 C 928.043 1710.94 926.733 1710.6 924.717 1707.86 C 925.593 1701.42 965.046 1657.82 972.342 1651.44 C 973.603 1651.95 975.606 1652.73 976.585 1653.64 C 977.496 1654.49 978.56 1655.7 978.361 1657.03 C 977.624 1661.95 937.584 1707.52 931.083 1712.34 z"/>
<path transform="translate(0,0)" fill="rgb(0,0,1)" d="M 1071.73 1794.34 C 1068.62 1793.15 1066.51 1792.55 1064.6 1789.58 C 1064.55 1788.51 1064.3 1787.43 1064.43 1786.36 C 1065.01 1781.69 1099.37 1725.46 1104.24 1719.8 L 1108.99 1720.9 C 1109.99 1721.9 1110.96 1722.36 1111.07 1723.86 C 1111.62 1731.8 1078.12 1785.53 1071.73 1794.34 z"/>
</svg>